<svg version="1.0" xmlns="http://www.w3.org/2000/svg" width="346.667" height="346.667" viewBox="0 0 260 260"><path d="M1 82.7c1.1 3.9 20.7 62.5 23.2 69.4l2 5.6 9.3-.1c5.1 0 9.6-.4 9.9-.7.3-.3 4.4-11.7 9.1-25.4 4.7-13.7 8.7-25 8.9-25.2.2-.2 4.1 10.8 8.6 24.4 4.6 13.6 8.5 25.3 8.7 25.9.2.7 3.9 1.1 10.1 1l9.7-.1 12.7-37.5c6.9-20.6 12.7-38.1 12.7-38.8.1-1-2-1.2-8.6-1l-8.6.3-8.8 26.4c-4.9 14.5-9 26.5-9.2 26.8-.3.2-1.2-2-2.1-4.9-.9-2.9-2.1-6.2-2.5-7.3-.5-1.1-3.8-10.9-7.2-21.8L72.6 80H55.4l-3.1 9.2c-7.9 23.7-14.3 42-15.1 43.3-.5 1.1-1.2.1-2.2-3.2-.7-2.7-4.6-14.7-8.6-26.8l-7.3-22-9.5-.3-9.5-.3.9 2.8zm145.9 14.8c-.3.2-1.6.6-2.9.9-4.6.9-8.9 2.4-11.9 4.2l-2.9 1.7 3 5.9c1.7 3.2 3.4 5.8 3.7 5.8.4 0 1.5-.6 2.6-1.3 6-4 18.1-4.9 23.3-1.7 3.2 1.9 5.6 6.2 4.9 8.4-.2.7-3.8 1.1-9.3 1.2-15.4.1-21.5 1.7-26.1 6.6-6.4 6.8-5.5 18.1 1.9 24.3 7.4 6.3 25.1 6.5 31.6.4 2.6-2.4 3-2.3 3.5 1.2.4 2.3.7 2.4 8.3 2.4h7.9l.2-19.4c.1-13.6-.3-20.7-1.2-23.8-3.3-11.1-12-16.5-27.1-17-5-.1-9.3-.1-9.5.2zM167 136c0 6.1-3.6 9.6-10.9 10.6-3.8.5-11-1.6-11.2-3.3 0-.4-.2-1.9-.5-3.3-.8-5.3 3.9-7.5 16.1-7.5h6.5v3.5zm24-37.2c0 .5.6 2.2 1.4 3.8 1.7 3.5 3.7 7.9 10.6 23.9 5 11.6 6.6 15.2 11.6 26.3 2.3 5.1 2.4 5.4.7 8.2-2.9 4.9-9.4 6.3-15.3 3.2l-3.5-1.7-3.2 6.2-3.2 6.2 4.7 2.3c9.1 4.4 22.9 3 29.6-3 3.6-3.2 6.4-8.8 19.5-39.2 7.3-16.8 13.9-31.8 14.7-33.4.8-1.6 1.4-3.1 1.4-3.3 0-.1-3.8-.3-8.6-.3h-8.5l-1.5 3.7c-.8 2.1-2.1 5.1-2.9 6.8-.7 1.6-3.7 8.6-6.6 15.5-5.1 12.3-6.9 15.6-6.9 13.2 0-.7-.9-3.1-1.9-5.5-1.1-2.3-4.7-10.8-8.1-19L208.8 98h-8.9c-4.9 0-8.9.4-8.9.8z"/></svg>