<?xml version="1.0" standalone="no"?>
<!DOCTYPE svg PUBLIC "-//W3C//DTD SVG 20010904//EN"
 "http://www.w3.org/TR/2001/REC-SVG-20010904/DTD/svg10.dtd">
<svg version="1.0" xmlns="http://www.w3.org/2000/svg"
 width="260.000000pt" height="260.000000pt" viewBox="0 0 260.000000 260.000000"
 preserveAspectRatio="xMidYMid meet">
<metadata>
Created by potrace 1.14, written by Peter Selinger 2001-2017
</metadata>
<g transform="translate(0.000000,260.000000) scale(0.100000,-0.100000)"
fill="#000000" stroke="none">
<path d="M10 1773 c11 -39 207 -625 232 -694 l20 -56 93 1 c51 0 96 4 99 7 3
3 44 117 91 254 47 137 87 250 89 252 2 2 41 -108 86 -244 46 -136 85 -253 87
-259 2 -7 39 -11 101 -10 l97 1 127 375 c69 206 127 381 127 388 1 10 -20 12
-86 10 l-86 -3 -88 -264 c-49 -145 -90 -265 -92 -268 -3 -2 -12 20 -21 49 -9
29 -21 62 -25 73 -5 11 -38 109 -72 218 l-63 197 -86 0 -86 0 -31 -92 c-79
-237 -143 -420 -151 -433 -5 -11 -12 -1 -22 32 -7 27 -46 147 -86 268 l-73
220 -95 3 -95 3 9 -28z"/>
<path d="M1469 1625 c-3 -2 -16 -6 -29 -9 -46 -9 -89 -24 -119 -42 l-29 -17
30 -59 c17 -32 34 -58 37 -58 4 0 15 6 26 13 60 40 181 49 233 17 32 -19 56
-62 49 -84 -2 -7 -38 -11 -93 -12 -154 -1 -215 -17 -261 -66 -64 -68 -55 -181
19 -243 74 -63 251 -65 316 -4 26 24 30 23 35 -12 4 -23 7 -24 83 -24 l79 0 2
194 c1 136 -3 207 -12 238 -33 111 -120 165 -271 170 -50 1 -93 1 -95 -2z
m201 -385 c0 -61 -36 -96 -109 -106 -38 -5 -110 16 -112 33 0 4 -2 19 -5 33
-8 53 39 75 161 75 l65 0 0 -35z"/>
<path d="M1910 1612 c0 -5 6 -22 14 -38 17 -35 37 -79 106 -239 50 -116 66
-152 116 -263 23 -51 24 -54 7 -82 -29 -49 -94 -63 -153 -32 l-35 17 -32 -62
-32 -62 47 -23 c91 -44 229 -30 296 30 36 32 64 88 195 392 73 168 139 318
147 334 8 16 14 31 14 33 0 1 -38 3 -86 3 l-85 0 -15 -37 c-8 -21 -21 -51 -29
-68 -7 -16 -37 -86 -66 -155 -51 -123 -69 -156 -69 -132 0 7 -9 31 -19 55 -11
23 -47 108 -81 190 l-62 147 -89 0 c-49 0 -89 -4 -89 -8z"/>
</g>
</svg>
